<svg width="492" height="782" viewBox="0 0 492 782" fill="none" xmlns="http://www.w3.org/2000/svg">
<path d="M196.5 673L99 781.5L246 770V673H196.5Z" fill="#DACEAD"/>
<rect x="196" y="174" width="50" height="499" fill="#DACEAD"/>
<rect x="246" y="174" width="50" height="499" fill="#F5E7D4"/>
<path d="M296 429L313.5 423L331 429V379L313.5 374L296 379V429Z" fill="#F5E7D4"/>
<path d="M296 673L313.5 667L331 673V623L313.5 618L296 623V673Z" fill="#F5E7D4"/>
<rect x="301" y="634" width="30" height="5" transform="rotate(90 301 634)" fill="#AB977A"/>
<rect x="316" y="628" width="30" height="5" transform="rotate(90 316 628)" fill="#AB977A"/>
<rect x="331" y="634" width="30" height="5" transform="rotate(90 331 634)" fill="#AB977A"/>
<path d="M161 429L178.5 423L196 429V379L178.5 374L161 379V429Z" fill="#F5E7D4"/>
<path d="M161 670L178.5 664L196 670V620L178.5 615L161 620V670Z" fill="#F5E7D4"/>
<path d="M219.225 31.111C220.369 23.9473 224.071 17.4409 229.644 12.7967L245 0L260.519 12.9326C265.994 17.4947 269.665 23.8565 270.877 30.8789L296 176.5H196L219.225 31.111Z" fill="#DACEAD"/>
<path d="M272.775 31.111C271.631 23.9473 267.929 17.4409 262.356 12.7967L247 0L246 20V176.5H296L272.775 31.111Z" fill="#F5E7D4"/>
<circle cx="246" cy="605" r="25" fill="#6D2F48"/>
<circle cx="246" cy="549" r="25" fill="#93AE5A"/>
<circle cx="246" cy="157" r="25" fill="#659486"/>
<circle cx="246" cy="493" r="25" fill="#659486"/>
<circle cx="246" cy="437" r="25" fill="#CD623C"/>
<circle cx="246" cy="381" r="25" fill="#FAB044"/>
<circle cx="246" cy="325" r="25" fill="#D22A32"/>
<circle cx="246" cy="269" r="25" fill="#6D2F48"/>
<circle cx="246" cy="213" r="25" fill="#93AE5A"/>
<path d="M331 673L388.5 525.525H331V673Z" fill="#DACEAD"/>
<path d="M331 673L399.5 525.526H331V673Z" fill="#F5E7D4"/>
<path d="M331 379L399.5 526.475H331V379Z" fill="#F5E7D4"/>
<path d="M331 524L492 743L331 671.475V524Z" fill="#F5E7D4"/>
<path d="M331 524L466 731.5L331 671.475V524Z" fill="#DACEAD"/>
<path d="M331 673L388.5 525.526H331V673Z" fill="#DACEAD"/>
<path d="M331 379L388.5 526.475H331V379Z" fill="#DACEAD"/>
<path d="M161 673L92.5 525.526H161V673Z" fill="#F5E7D4"/>
<path d="M161 379L92.5 526.475H161V379Z" fill="#F5E7D4"/>
<path d="M161 524L0 743L161 671.475V524Z" fill="#F5E7D4"/>
<path d="M161 524L26 731.5L161 671.475V524Z" fill="#DACEAD"/>
<path d="M161 673L103.5 525.526H161V673Z" fill="#DACEAD"/>
<path d="M161 379L103.5 526.475H161V379Z" fill="#DACEAD"/>
<rect x="301" y="387" width="30" height="5" transform="rotate(90 301 387)" fill="#AB977A"/>
<rect x="316" y="381" width="30" height="5" transform="rotate(90 316 381)" fill="#AB977A"/>
<rect x="331" y="387" width="30" height="5" transform="rotate(90 331 387)" fill="#AB977A"/>
<rect x="166" y="634" width="30" height="5" transform="rotate(90 166 634)" fill="#AB977A"/>
<rect x="178.695" y="656.49" width="14.7503" height="5" transform="rotate(149.392 178.695 656.49)" fill="#AB977A"/>
<rect width="15.0772" height="5" transform="matrix(0.860668 0.509167 0.509167 -0.860668 178 656.303)" fill="#AB977A"/>
<rect x="178.241" y="409.49" width="14.7503" height="5" transform="rotate(149.392 178.241 409.49)" fill="#AB977A"/>
<rect width="15.0772" height="5" transform="matrix(0.860668 0.509167 0.509167 -0.860668 177.546 409.303)" fill="#AB977A"/>
<rect x="314.241" y="409.49" width="14.7503" height="5" transform="rotate(149.392 314.241 409.49)" fill="#AB977A"/>
<rect width="15.0772" height="5" transform="matrix(0.860668 0.509167 0.509167 -0.860668 313.546 409.303)" fill="#AB977A"/>
<rect x="314.241" y="656.49" width="14.7503" height="5" transform="rotate(149.392 314.241 656.49)" fill="#AB977A"/>
<rect width="15.0772" height="5" transform="matrix(0.860668 0.509167 0.509167 -0.860668 313.546 656.303)" fill="#AB977A"/>
<rect x="181" y="628" width="30" height="5" transform="rotate(90 181 628)" fill="#AB977A"/>
<rect x="196" y="634" width="30" height="5" transform="rotate(90 196 634)" fill="#AB977A"/>
<rect x="166" y="387" width="30" height="5" transform="rotate(90 166 387)" fill="#AB977A"/>
<rect x="181" y="381" width="30" height="5" transform="rotate(90 181 381)" fill="#AB977A"/>
<rect x="196" y="387" width="30" height="5" transform="rotate(90 196 387)" fill="#AB977A"/>
<path d="M196.5 673L178.5 727.25L99 781.5L172.5 769L209.25 764L246 770V673H196.5Z" fill="#F5E7D4"/>
<rect x="226" y="684" width="70" height="5" transform="rotate(90 226 684)" fill="#AB977A"/>
<path d="M295.5 673L393 781.5L246 770V673H295.5Z" fill="#F5E7D4"/>
<path d="M295.5 673L313.5 727.25L393 781.5L319.5 769L282.75 764L246 770V673H295.5Z" fill="#DACEAD"/>
<rect x="271" y="684" width="70" height="5" transform="rotate(90 271 684)" fill="#AB977A"/>
<rect x="281" y="684" width="70" height="5" transform="rotate(90 281 684)" fill="#AB977A"/>
<rect x="216" y="684" width="70" height="5" transform="rotate(90 216 684)" fill="#AB977A"/>
<rect x="291" y="684" width="70" height="5" transform="rotate(90 291 684)" fill="#AB977A"/>
<rect x="206" y="684" width="70" height="5" transform="rotate(90 206 684)" fill="#AB977A"/>
</svg>
